<?xml version="1.0" encoding="UTF-8" standalone="no"?>
<!-- Created with Inkscape (http://www.inkscape.org/) -->
<svg
   xmlns:dc="http://purl.org/dc/elements/1.1/"
   xmlns:cc="http://creativecommons.org/ns#"
   xmlns:rdf="http://www.w3.org/1999/02/22-rdf-syntax-ns#"
   xmlns:svg="http://www.w3.org/2000/svg"
   xmlns="http://www.w3.org/2000/svg"
   xmlns:sodipodi="http://sodipodi.sourceforge.net/DTD/sodipodi-0.dtd"
   xmlns:inkscape="http://www.inkscape.org/namespaces/inkscape"
   width="400"
   height="200"
   id="svg2"
   sodipodi:version="0.32"
   inkscape:version="0.46+devel"
   version="1.0"
   sodipodi:docname="icons.svg"
   inkscape:output_extension="org.inkscape.output.svg.inkscape">
  <defs
     id="defs4">
    <inkscape:perspective
       sodipodi:type="inkscape:persp3d"
       inkscape:vp_x="0 : 526.18109 : 1"
       inkscape:vp_y="0 : 1000 : 0"
       inkscape:vp_z="744.09448 : 526.18109 : 1"
       inkscape:persp3d-origin="372.04724 : 350.78739 : 1"
       id="perspective10" />
    <inkscape:perspective
       id="perspective9964"
       inkscape:persp3d-origin="8 : 5.3333333 : 1"
       inkscape:vp_z="16 : 8 : 1"
       inkscape:vp_y="0 : 1000 : 0"
       inkscape:vp_x="0 : 8 : 1"
       sodipodi:type="inkscape:persp3d" />
    <inkscape:perspective
       id="perspective10801"
       inkscape:persp3d-origin="0.5 : 0.33333333 : 1"
       inkscape:vp_z="1 : 0.5 : 1"
       inkscape:vp_y="0 : 1000 : 0"
       inkscape:vp_x="0 : 0.5 : 1"
       sodipodi:type="inkscape:persp3d" />
  </defs>
  <sodipodi:namedview
     id="base"
     pagecolor="#ffffff"
     bordercolor="#666666"
     borderopacity="1.0"
     inkscape:pageopacity="0.0"
     inkscape:pageshadow="2"
     inkscape:zoom="4"
     inkscape:cx="56.523606"
     inkscape:cy="138.80176"
     inkscape:document-units="px"
     inkscape:current-layer="layer1"
     showgrid="false"
     borderlayer="true"
     inkscape:showpageshadow="false"
     inkscape:window-width="1006"
     inkscape:window-height="647"
     inkscape:window-x="1860"
     inkscape:window-y="192">
    <inkscape:grid
       type="xygrid"
       id="grid9913"
       empspacing="5"
       visible="true"
       enabled="true" />
  </sodipodi:namedview>
  <metadata
     id="metadata7">
    <rdf:RDF>
      <cc:Work
         rdf:about="">
        <dc:format>image/svg+xml</dc:format>
        <dc:type
           rdf:resource="http://purl.org/dc/dcmitype/StillImage" />
        <dc:title></dc:title>
      </cc:Work>
    </rdf:RDF>
  </metadata>
  <g
     inkscape:label="plate"
     inkscape:groupmode="layer"
     id="layer1"
     style="display:none">
    <rect
       style="color:#000000;fill:#fcaf3e;fill-opacity:1;fill-rule:nonzero;stroke:none;stroke-width:3.37591386;marker:none;visibility:visible;display:inline;overflow:visible;enable-background:accumulate"
       id="more"
       width="16"
       height="16"
       x="20"
       y="20"
       inkscape:label="#rect9915" />
    <rect
       y="20"
       x="37"
       height="16"
       width="16"
       id="reply"
       style="color:#000000;fill:#fcaf3e;fill-opacity:1;fill-rule:nonzero;stroke:none;stroke-width:3.37591386;marker:none;visibility:visible;display:inline;overflow:visible;enable-background:accumulate"
       inkscape:label="#rect9917" />
    <rect
       style="color:#000000;fill:#fcaf3e;fill-opacity:1;fill-rule:nonzero;stroke:none;stroke-width:3.37591386;marker:none;visibility:visible;display:inline;overflow:visible;enable-background:accumulate"
       id="thread"
       width="16"
       height="16"
       x="54"
       y="20"
       inkscape:label="#rect9919" />
    <rect
       inkscape:label="#rect9919"
       y="28"
       x="72"
       height="8"
       width="8"
       id="star"
       style="color:#000000;fill:#fcaf3e;fill-opacity:1;fill-rule:nonzero;stroke:none;stroke-width:3.37591386;marker:none;visibility:visible;display:inline;overflow:visible;enable-background:accumulate"
       inkscape:export-xdpi="120"
       inkscape:export-ydpi="120" />
  </g>
  <g
     inkscape:groupmode="layer"
     id="layer2"
     inkscape:label="artwork">
    <g
       id="layer1-1"
       inkscape:label="Livello 1"
       transform="translate(22.5,24.5)">
      <g
         transform="matrix(-1,0,0,1,7,-8)"
         id="g9812" />
      <path
         sodipodi:nodetypes="cccccccccc"
         id="path7633"
         d="m 14.5,5.499997 6,6 0,-4 3.125,0 c 3.758324,0 5.875,-2.435765 5.875,-6.9375 l 0,-3.0625 c 0,3 -1.502897,5.26741 -6,6 l -3,0 0,-4 -6,6 z"
         style="fill:#ffffff;fill-opacity:1;fill-rule:evenodd;stroke:none" />
      <path
         style="fill:#ffffff;fill-opacity:1;fill-rule:evenodd;stroke:none"
         d="M 31.833333,5.944441 36.5,10.611108 l 0,-3.111111 2.430556,0 C 41.853696,7.499997 43.5,5.605513 43.5,2.104163 l 0,-2.381944 c 0,2.333333 -1.16892,4.096875 -4.666667,4.666667 l -2.333333,0 0,-3.111112 -4.666667,4.666667 z"
         id="path10783"
         sodipodi:nodetypes="cccccccccc" />
      <path
         sodipodi:nodetypes="cccccccccc"
         id="path10785"
         d="M 34.833333,0.055552 39.5,4.722219 l 0,-3.111111 2.430556,0 c 2.92314,0 4.569444,-1.894484 4.569444,-5.395834 l 0,-2.381944 c 0,2.333333 -1.16892,4.096875 -4.666667,4.666667 l -2.333333,0 0,-3.111111 -4.666667,4.666666 z"
         style="fill:#ffffff;fill-opacity:1;fill-rule:evenodd;stroke:none" />
      <path
         sodipodi:type="arc"
         style="color:#000000;fill:#ffffff;fill-opacity:1;fill-rule:nonzero;stroke:none;stroke-width:3.37591386;marker:none;visibility:visible;display:inline;overflow:visible;enable-background:accumulate"
         id="path10787"
         sodipodi:cx="22"
         sodipodi:cy="31"
         sodipodi:rx="2"
         sodipodi:ry="2"
         d="m 24,31 c 0,1.104569 -0.895431,2 -2,2 -1.104569,0 -2,-0.895431 -2,-2 0,-1.104569 0.895431,-2 2,-2 1.104569,0 2,0.895431 2,2 z"
         transform="translate(-21.5,-24.500003)" />
      <path
         transform="translate(-16.5,-24.500003)"
         d="m 24,31 c 0,1.104569 -0.895431,2 -2,2 -1.104569,0 -2,-0.895431 -2,-2 0,-1.104569 0.895431,-2 2,-2 1.104569,0 2,0.895431 2,2 z"
         sodipodi:ry="2"
         sodipodi:rx="2"
         sodipodi:cy="31"
         sodipodi:cx="22"
         id="path10789"
         style="color:#000000;fill:#ffffff;fill-opacity:1;fill-rule:nonzero;stroke:none;stroke-width:3.37591386;marker:none;visibility:visible;display:inline;overflow:visible;enable-background:accumulate"
         sodipodi:type="arc" />
      <path
         sodipodi:type="arc"
         style="color:#000000;fill:#ffffff;fill-opacity:1;fill-rule:nonzero;stroke:none;stroke-width:3.37591386;marker:none;visibility:visible;display:inline;overflow:visible;enable-background:accumulate"
         id="path10791"
         sodipodi:cx="22"
         sodipodi:cy="31"
         sodipodi:rx="2"
         sodipodi:ry="2"
         d="m 24,31 c 0,1.104569 -0.895431,2 -2,2 -1.104569,0 -2,-0.895431 -2,-2 0,-1.104569 0.895431,-2 2,-2 1.104569,0 2,0.895431 2,2 z"
         transform="translate(-11.5,-24.500003)" />
    </g>
    <path
       sodipodi:type="star"
       style="opacity:1;color:#000000;fill:#ffffff;fill-opacity:1;fill-rule:nonzero;stroke:none;stroke-width:4;marker:none;visibility:visible;display:inline;overflow:visible;enable-background:accumulate"
       id="path9925"
       sodipodi:sides="5"
       sodipodi:cx="75"
       sodipodi:cy="30"
       sodipodi:r1="3.6055512"
       sodipodi:r2="2.3734982"
       sodipodi:arg1="1.0471976"
       sodipodi:arg2="1.6755161"
       inkscape:flatsided="false"
       inkscape:rounded="0.2"
       inkscape:randomized="0"
       d="m 76.802775,33.122499 c -0.378948,0.218786 -1.615698,-0.716264 -2.050873,-0.762003 -0.435175,-0.04574 -1.839307,0.611743 -2.164487,0.318951 -0.325179,-0.292793 0.18193,-1.757959 0.09095,-2.185969 -0.09098,-0.42801 -1.150179,-1.560246 -0.972203,-1.959988 0.177977,-0.399742 1.728137,-0.370214 2.107086,-0.589 0.378948,-0.218786 1.128457,-1.576028 1.563632,-1.53029 0.435175,0.04574 0.886118,1.529154 1.211297,1.821947 0.32518,0.292793 1.847605,0.586207 1.938581,1.014217 0.09098,0.42801 -1.180486,1.315283 -1.358463,1.715025 -0.177976,0.399742 0.01343,1.938324 -0.365523,2.15711 z"
       transform="matrix(1.1636317,-0.13407984,0.13407984,1.1636317,-15.285338,7.3785215)" />
  </g>
</svg>
